<svg xmlns="http://www.w3.org/2000/svg" viewBox="0 0 300 300"><defs><style>.a578ea45-7891-4b74-8ba9-ff09dbe1f0b6{fill:#0d0927;}.a5ee8b81-0c09-40fb-9808-6f5df2d6b5bf,.aba41b84-418e-468f-8550-e21970c01654,.b9805512-6520-404f-aa99-313d518a379e,.e7c90d0f-286d-41ca-8b61-7ab984a6e64c{fill:none;}.aba41b84-418e-468f-8550-e21970c01654{stroke:#0d0927;stroke-width:3px;}.a5ee8b81-0c09-40fb-9808-6f5df2d6b5bf,.a7db9115-5f4a-4d86-b8d6-951d4c3dd007,.aba41b84-418e-468f-8550-e21970c01654,.b9805512-6520-404f-aa99-313d518a379e,.e7c90d0f-286d-41ca-8b61-7ab984a6e64c{stroke-miterlimit:10;}.a7db9115-5f4a-4d86-b8d6-951d4c3dd007{fill:#2d1f73;stroke:#fff;}.a5ee8b81-0c09-40fb-9808-6f5df2d6b5bf{stroke:#f9f3b0;stroke-width:13px;}.e7c90d0f-286d-41ca-8b61-7ab984a6e64c{stroke:#5f408d;stroke-width:15px;}.b9805512-6520-404f-aa99-313d518a379e{stroke:#cd6a02;}</style></defs><title>Mesa de trabajo 4</title><g id="f738e7fa-8ff5-40a5-93a9-d7ea37805565" data-name="Other"><g id="af79a88b-cc19-470b-81cf-38795ec89efc" data-name="Logo"><g id="bca6ea4f-1f87-42b5-a14f-4f492c9a44b7" data-name="Loading negro"><path class="a578ea45-7891-4b74-8ba9-ff09dbe1f0b6" d="M96.31,279.58A139.52,139.52,0,1,0,12.4,117.45l49.44,18.3L12.61,117.5l48.28,18.1a87.9,87.9,0,1,1,86.73,102.22c-10.39,0-30.29-5.44-30.29-5.44L95.84,280.54"/></g><text id="a3fe677d-3c74-40bf-a3dc-bc827828b10d" data-name="Texto"/><circle id="ad76bb68-f36f-41fb-9d7e-a6c9ebf5ea56" data-name="Circulo negro" class="a578ea45-7891-4b74-8ba9-ff09dbe1f0b6" cx="148.53" cy="150" r="67.28"/><circle id="ffc18c18-b2c1-434d-977a-126a1c5c5749" data-name="Linea fina" class="aba41b84-418e-468f-8550-e21970c01654" cx="148.53" cy="150" r="87.89"/><path id="ea0cc3ec-037b-448e-90d3-9fc1e95e2d14" data-name="Barra loading" class="a7db9115-5f4a-4d86-b8d6-951d4c3dd007" d="M119.9,223a78.21,78.21,0,1,0-49.16-85.35L63.79,136A85.26,85.26,0,1,1,118,229.9"/></g><line class="a5ee8b81-0c09-40fb-9808-6f5df2d6b5bf" x1="145.18" y1="151.64" x2="155.08" y2="151.08"/><path class="a5ee8b81-0c09-40fb-9808-6f5df2d6b5bf" d="M145.38,151.63a27.09,27.09,0,0,0,2.8,9.67,26,26,0,0,0,35.31,11.52A26.88,26.88,0,0,0,194.8,136.9a26.1,26.1,0,0,0-29.55-13.71l1.2,10-1.19-10"/><path class="a5ee8b81-0c09-40fb-9808-6f5df2d6b5bf" d="M166.39,133a16.43,16.43,0,0,1,19.76,8.31A17,17,0,0,1,179,164a16.4,16.4,0,0,1-22.25-7.26,30.72,30.72,0,0,1-1.7-5.62"/><line class="e7c90d0f-286d-41ca-8b61-7ab984a6e64c" x1="154.88" y1="149.1" x2="144.97" y2="149.38"/><path class="e7c90d0f-286d-41ca-8b61-7ab984a6e64c" d="M154.67,149.1a26.73,26.73,0,0,0-2.53-9.74,26,26,0,0,0-35-12.5,26.86,26.86,0,0,0-12.27,35.58A26.11,26.11,0,0,0,134,177l-.92-10,.92,10"/><path class="e7c90d0f-286d-41ca-8b61-7ab984a6e64c" d="M133.17,167.11a16.42,16.42,0,0,1-19.52-8.86,16.92,16.92,0,0,1,7.73-22.41,16.4,16.4,0,0,1,22,7.87,31.13,31.13,0,0,1,1.55,5.67"/><path class="b9805512-6520-404f-aa99-313d518a379e" d="M145.16,160.38A16.55,16.55,0,0,1,140,165a30.6,30.6,0,0,1-5.45,2l1,10,0-.21a25.7,25.7,0,0,0,9.38-3.26,26.28,26.28,0,0,0,5.92-4.69Z"/></g></svg>