<svg xmlns="http://www.w3.org/2000/svg" viewBox="0 0 280.26 284.15"><g id="Capa_2" data-name="Capa 2"><g id="Large"><g id="Loading_negro" data-name="Loading negro"><path d="M85.45,274A142.09,142.09,0,1,0,0,108.92l50.34,18.64L.21,109l49.17,18.44A89.51,89.51,0,1,1,137.7,231.5c-10.57,0-30.84-5.54-30.84-5.54L85,275" fill="#0d0927"/></g><text id="Texto" transform="translate(43.38 114.93) rotate(-66.85)" font-size="45.6" fill="#f8f2b0" font-family="VictorMono-Bold, Victor Mono" font-weight="700">L</text><text transform="translate(53.73 91.11) rotate(-51.77)" font-size="45.6" fill="#f8f2b0" font-family="VictorMono-Bold, Victor Mono" font-weight="700">O</text><text transform="translate(69.93 70.78) rotate(-36.77)" font-size="45.6" fill="#f8f2b0" font-family="VictorMono-Bold, Victor Mono" font-weight="700">O</text><text transform="translate(90.78 55.37) rotate(-21.7)" font-size="45.6" fill="#f8f2b0" font-family="VictorMono-Bold, Victor Mono" font-weight="700">P</text><text transform="matrix(0.99, -0.11, 0.11, 0.99, 114.96, 45.91)" font-size="45.6" fill="#f8f2b0" font-family="VictorMono-Bold, Victor Mono" font-weight="700"> </text><text transform="matrix(0.99, 0.15, -0.15, 0.99, 140.79, 43.09)" font-size="45.6" fill="#f8f2b0" font-family="VictorMono-Bold, Victor Mono" font-weight="700"> </text><text transform="matrix(0.92, 0.4, -0.4, 0.92, 166.45, 47.01)" font-size="45.6" fill="#f8f2b0" font-family="VictorMono-Bold, Victor Mono" font-weight="700"> </text><text transform="translate(190.18 57.52) rotate(38.62)" font-size="45.6" fill="#f8f2b0" font-family="VictorMono-Bold, Victor Mono" font-weight="700"> </text><text transform="translate(210.39 73.85) rotate(53.62)" font-size="45.6" fill="#f8f2b0" font-family="VictorMono-Bold, Victor Mono" font-weight="700"> </text><text transform="translate(225.67 94.82) rotate(68.7)" font-size="45.6" fill="#f8f2b0" font-family="VictorMono-Bold, Victor Mono" font-weight="700"> </text><text transform="translate(234.96 119.07) rotate(83.85)" font-size="45.6" fill="#f8f2b0" font-family="VictorMono-Bold, Victor Mono" font-weight="700"> </text><text transform="matrix(-0.15, 0.99, -0.99, -0.15, 237.6, 144.89)" font-size="45.6" fill="#f8f2b0" font-family="VictorMono-Bold, Victor Mono" font-weight="700"> </text><text transform="matrix(-0.41, 0.91, -0.91, -0.41, 233.5, 170.53)" font-size="45.6" fill="#f8f2b0" font-family="VictorMono-Bold, Victor Mono" font-weight="700">L</text><text transform="translate(222.82 194.21) rotate(129.02)" font-size="45.6" fill="#f8f2b0" font-family="VictorMono-Bold, Victor Mono" font-weight="700">O</text><text transform="matrix(-0.81, 0.59, -0.59, -0.81, 206.37, 214.29)" font-size="45.6" fill="#f8f2b0" font-family="VictorMono-Bold, Victor Mono" font-weight="700">O</text><text transform="matrix(-0.93, 0.36, -0.36, -0.93, 185.29, 229.43)" font-size="45.6" fill="#f8f2b0" font-family="VictorMono-Bold, Victor Mono" font-weight="700">P</text><text transform="translate(160.97 238.56) rotate(174.25)" font-size="45.6" fill="#f8f2b0" font-family="VictorMono-Bold, Victor Mono" font-weight="700"> </text><text transform="translate(135.13 241.02) rotate(-170.82)" font-size="45.6" fill="#f8f2b0" font-family="VictorMono-Bold, Victor Mono" font-weight="700"> </text><text transform="translate(109.53 236.74) rotate(-155.67)" font-size="45.6" fill="#f8f2b0" font-family="VictorMono-Bold, Victor Mono" font-weight="700"> </text><circle id="Circulo_negro" data-name="Circulo negro" cx="138.63" cy="142.07" r="68.52" fill="#0d0927"/><circle id="Linea_fina" data-name="Linea fina" cx="138.63" cy="142.07" r="89.51" fill="none" stroke="#0d0927" stroke-miterlimit="10" stroke-width="3"/><text transform="translate(118.5 183.06) rotate(-12.23)" font-size="123.41" fill="#f8f2b0" stroke="#211915" stroke-miterlimit="10" stroke-width="0.25" font-family="VictorMono-Bold, Victor Mono" font-weight="700" letter-spacing="-0.04em">L</text><path id="Barra_loading" data-name="Barra loading" d="M109.48,216.42A79.64,79.64,0,1,0,59.41,129.5l-7.08-1.64a86.83,86.83,0,1,1,55.21,95.58" fill="#2d1f73" stroke="#fff" stroke-miterlimit="10"/></g></g></svg>